<?xml version="1.0" standalone="no"?>
<!DOCTYPE svg PUBLIC "-//W3C//DTD SVG 20010904//EN"
 "http://www.w3.org/TR/2001/REC-SVG-20010904/DTD/svg10.dtd">
<svg version="1.0" xmlns="http://www.w3.org/2000/svg"
 width="348.000000pt" height="350.000000pt" viewBox="0 0 348.000000 350.000000"
 preserveAspectRatio="xMidYMid meet">

<g transform="translate(0.000000,350.000000) scale(0.100000,-0.100000)"
fill="#000000" stroke="none">
<path d="M1895 3064 c-110 -179 -201 -331 -203 -338 -2 -7 60 -115 138 -239
77 -125 140 -229 140 -231 0 -3 -60 -7 -134 -8 l-134 -3 114 -185 c64 -102
129 -207 146 -235 l31 -50 14 40 c86 245 94 515 23 769 -12 43 -19 80 -16 83
10 11 242 -154 321 -228 100 -95 150 -159 206 -262 42 -79 89 -213 89 -254 0
-29 13 -29 72 0 l47 22 -165 265 c-90 146 -164 268 -164 273 0 4 54 7 121 7
l121 0 -20 33 c-121 201 -536 867 -541 867 -3 0 -96 -147 -206 -326z"/>
<path d="M885 2993 c-131 -214 -270 -437 -307 -497 -37 -60 -68 -113 -68 -118
0 -4 59 -8 130 -8 72 0 130 -3 130 -6 0 -4 -42 -74 -94 -158 -51 -83 -170
-275 -265 -428 -94 -152 -174 -283 -177 -292 -5 -14 10 -16 135 -16 78 0 141
-2 141 -4 0 -2 -94 -156 -209 -342 -115 -186 -207 -342 -204 -346 2 -5 200 -8
439 -8 l434 0 0 -200 0 -200 160 0 c144 0 160 2 160 17 0 10 -23 62 -50 118
-81 162 -99 311 -60 490 25 112 55 193 138 365 95 199 114 258 119 370 5 97
-2 141 -46 293 l-20 68 89 -47 c102 -54 171 -111 235 -194 54 -70 116 -185
140 -258 16 -49 18 -52 34 -38 9 9 27 33 39 54 l22 39 -216 349 c-119 192
-218 355 -221 362 -4 9 26 12 132 12 l137 0 -18 28 c-10 15 -150 241 -311 502
-161 261 -297 476 -301 478 -4 1 -115 -172 -247 -385z"/>
<path d="M2198 2292 c8 -245 -57 -522 -169 -713 -48 -84 -126 -169 -204 -226
l-60 -44 -11 93 c-7 51 -23 123 -37 160 -25 69 -87 180 -130 232 l-24 30 -6
-105 c-7 -126 -24 -181 -122 -389 -83 -178 -120 -276 -141 -373 -42 -203 12
-389 158 -542 39 -41 74 -75 77 -75 4 0 26 48 49 107 106 269 311 525 568 709
l89 63 3 -42 c11 -178 57 -360 116 -461 26 -44 30 -47 59 -41 82 16 139 38
185 70 l51 34 38 -67 c51 -87 115 -239 138 -324 10 -38 22 -68 27 -68 17 0
138 123 171 174 98 151 105 247 52 681 -8 66 -15 152 -15 190 0 136 41 316
105 462 14 31 25 59 25 64 0 12 -72 11 -164 -2 -139 -19 -289 -73 -425 -153
-34 -20 -64 -36 -67 -36 -2 0 -4 19 -4 43 0 74 -30 228 -57 296 -41 102 -87
173 -169 261 -112 118 -110 119 -106 -8z"/>
</g>
</svg>
