<?xml version="1.0" standalone="no"?>
<!DOCTYPE svg PUBLIC "-//W3C//DTD SVG 20010904//EN"
 "http://www.w3.org/TR/2001/REC-SVG-20010904/DTD/svg10.dtd">
<svg version="1.0" xmlns="http://www.w3.org/2000/svg"
 width="410.000000pt" height="424.000000pt" viewBox="0 0 410.000000 424.000000"
 preserveAspectRatio="xMidYMid meet">

<g transform="translate(0.000000,424.000000) scale(0.100000,-0.100000)"
fill="#000000" stroke="none">
<path d="M1438 3722 c-9 -4 -39 -36 -68 -72 -28 -36 -56 -72 -63 -80 -67 -83
-339 -424 -363 -456 -32 -41 -50 -63 -95 -118 -78 -94 -110 -146 -104 -166 12
-38 55 -50 178 -50 62 0 116 -3 120 -6 4 -5 -121 -186 -165 -239 -9 -11 -23
-30 -238 -322 -77 -106 -145 -195 -150 -198 -17 -10 -11 -61 8 -78 15 -14 41
-17 135 -17 64 0 118 -4 122 -10 3 -5 -36 -68 -87 -140 -51 -72 -100 -141
-108 -153 -8 -12 -83 -117 -166 -233 -83 -116 -160 -226 -170 -243 -18 -30
-18 -31 3 -58 l20 -28 494 -3 c271 -1 497 -6 501 -10 8 -8 -3 -322 -21 -587
-5 -66 -6 -126 -4 -132 4 -10 64 -13 253 -13 137 0 251 4 254 9 5 8 1 112 -20
494 -4 87 -11 128 -26 158 -59 123 -97 294 -98 439 0 282 88 456 459 905 71
87 91 114 91 123 0 7 -52 81 -115 167 -63 85 -115 159 -115 165 0 6 44 10 114
10 128 0 161 8 178 44 14 31 11 36 -137 221 -61 77 -169 212 -238 300 -70 88
-148 185 -172 215 -25 30 -55 68 -67 85 -62 80 -92 96 -140 77z"/>
</g>
</svg>
